<?xml version="1.0" standalone="no"?>
<!DOCTYPE svg PUBLIC "-//W3C//DTD SVG 20010904//EN"
 "http://www.w3.org/TR/2001/REC-SVG-20010904/DTD/svg10.dtd">
<svg version="1.0" xmlns="http://www.w3.org/2000/svg"
 width="500.000000pt" height="500.000000pt" viewBox="0 0 500.000000 500.000000"
 preserveAspectRatio="xMidYMid meet">

<g transform="translate(0.000000,500.000000) scale(0.100000,-0.100000)"
fill="#000000" stroke="none">
<path d="M4245 4694 c-138 -25 -413 -110 -1115 -344 -245 -81 -531 -173 -635
-203 -105 -31 -211 -63 -235 -71 -25 -8 -69 -20 -98 -26 -67 -15 -84 -37 -68
-89 14 -47 49 -89 101 -121 36 -21 179 -134 213 -167 8 -7 23 -18 34 -24 20
-11 150 -107 178 -132 14 -13 89 -64 119 -82 10 -6 12 -3 7 13 -5 15 1 25 24
42 16 12 30 27 30 33 0 12 -86 160 -157 270 -24 37 -55 73 -68 79 -31 14 -31
29 -2 64 19 22 34 28 78 31 52 5 57 2 134 -49 71 -48 118 -76 278 -167 23 -13
59 -35 79 -49 23 -15 46 -22 58 -19 12 3 52 -6 91 -20 62 -23 69 -29 69 -53 0
-72 -150 -116 -241 -69 -27 13 -39 26 -37 37 2 9 5 15 8 13 9 -8 52 21 44 29
-5 4 -32 15 -61 24 -47 16 -55 16 -101 1 -55 -18 -105 -61 -81 -69 102 -36
132 -51 146 -72 14 -23 14 -27 1 -40 -24 -24 -185 -75 -214 -68 -14 4 -24 2
-24 -5 0 -6 5 -11 10 -11 6 0 72 -47 148 -103 186 -141 313 -233 397 -290 304
-206 305 -207 383 -262 34 -25 65 -45 69 -45 3 0 21 -12 40 -26 19 -14 58 -40
88 -57 30 -18 112 -71 182 -118 148 -100 323 -217 464 -309 55 -36 130 -86
167 -111 92 -64 241 -159 247 -159 3 0 5 198 5 440 l0 440 -38 43 c-21 23 -62
74 -92 112 -29 39 -77 95 -106 125 -67 71 -141 165 -123 157 8 -3 91 -39 184
-80 l170 -73 3 84 c2 47 1 86 -1 88 -2 2 -18 -3 -36 -12 -72 -36 -231 -24
-370 27 -29 11 -56 18 -58 15 -3 -2 7 -24 21 -49 43 -73 32 -116 -37 -148
-125 -56 -354 14 -446 136 -47 63 -56 88 -76 200 -9 50 -27 114 -41 144 -28
63 -31 91 -7 91 9 0 71 -13 137 -30 67 -16 202 -41 301 -55 321 -47 463 -94
561 -188 l54 -53 0 178 0 179 -40 38 c-22 21 -40 47 -40 58 0 26 34 70 60 78
36 11 24 48 -23 70 -33 16 -43 26 -45 50 -5 42 21 59 59 39 l29 -15 0 215 0
215 -117 64 c-404 222 -467 242 -638 211z"/>
<path d="M2040 3878 c-29 -23 -213 -151 -465 -323 -202 -138 -567 -389 -640
-441 -27 -19 -78 -53 -113 -75 -103 -66 -219 -157 -246 -192 -36 -46 -36 -118
-1 -169 21 -30 59 -53 247 -146 123 -60 246 -120 273 -132 89 -41 31 -32 -65
9 -50 22 -90 38 -88 37 49 -44 250 -163 435 -256 131 -67 254 -130 273 -141
49 -26 142 -69 152 -69 5 0 61 -25 125 -56 63 -30 136 -64 162 -74 25 -10 100
-44 166 -75 66 -32 165 -77 220 -100 55 -24 159 -69 230 -100 72 -32 180 -74
241 -95 103 -35 184 -75 199 -100 21 -35 617 -284 976 -409 30 -10 135 -47
234 -81 99 -34 236 -85 304 -112 69 -28 173 -67 233 -88 l108 -38 0 608 0 609
-67 45 c-38 25 -144 96 -238 157 -93 61 -197 129 -230 152 -173 117 -523 348
-581 383 -39 24 -146 96 -242 163 -40 28 -75 51 -77 51 -11 0 -205 132 -205
139 0 4 -15 15 -32 24 -60 31 -208 137 -476 338 -70 53 -138 101 -151 108 -30
17 -252 179 -311 229 -24 20 -69 54 -100 75 -30 22 -73 56 -95 77 -22 20 -60
49 -85 63 l-45 26 -25 -21z m-932 -1049 c64 -17 268 -68 452 -115 447 -113
425 -105 369 -138 -17 -10 -45 -31 -63 -46 -18 -16 -43 -31 -57 -35 -22 -5
-30 1 -64 51 -39 56 -80 84 -125 84 -24 0 -139 -80 -140 -98 0 -7 16 -20 35
-29 34 -16 38 -16 71 2 l34 18 28 -26 c16 -15 35 -27 44 -27 8 0 22 -7 29 -16
11 -13 10 -17 -4 -26 -10 -5 -46 -31 -81 -57 l-63 -48 -129 104 c-128 103
-261 207 -372 291 -78 60 -132 109 -132 120 0 11 16 20 38 21 7 1 66 -13 130
-30z m2165 -308 c78 -26 157 -84 173 -127 7 -21 7 -42 0 -74 -9 -38 -18 -48
-54 -68 -28 -16 -69 -27 -115 -31 -65 -6 -70 -8 -47 -19 45 -21 251 -42 407
-42 97 0 153 -4 153 -10 0 -15 -49 -90 -59 -90 -4 0 -81 14 -171 31 -89 16
-166 29 -171 27 -5 -2 12 -14 38 -28 27 -13 73 -40 103 -59 30 -19 70 -40 88
-48 42 -17 47 -33 32 -89 -15 -51 -23 -59 -42 -41 -23 23 -145 121 -179 145
-62 43 -249 162 -255 162 -2 0 9 -24 25 -52 62 -111 48 -203 -37 -240 -132
-59 -344 -29 -477 67 -16 12 -42 28 -56 36 -30 16 -178 178 -250 274 -13 17
-60 68 -105 115 -78 80 -130 139 -122 140 2 1 77 3 168 6 91 3 257 14 370 24
340 33 462 31 583 -9z m-2072 -177 c9 -11 8 -14 -4 -14 -13 0 -47 25 -47 35 0
8 41 -9 51 -21z m98 -40 c6 -6 -58 4 -69 11 -5 3 -10 10 -10 15 0 8 67 -14 79
-26z m71 -44 c32 -25 15 -25 -30 0 -26 14 -30 19 -15 19 11 0 31 -8 45 -19z
m116 -56 c83 -36 124 -58 120 -62 -6 -5 -186 76 -186 84 0 7 5 5 66 -22z m247
-113 c149 -72 257 -121 264 -121 4 0 34 -13 67 -29 34 -17 72 -35 86 -40 14
-6 32 -15 40 -21 8 -5 49 -23 90 -41 41 -17 102 -44 135 -59 160 -74 286 -130
291 -130 4 0 86 -37 169 -76 17 -8 39 -16 50 -19 26 -6 77 -26 149 -59 44 -20
56 -30 48 -38 -9 -9 -16 -8 -29 3 -10 8 -29 20 -43 26 -14 6 -50 22 -81 36
-31 14 -76 31 -100 38 -24 7 -51 18 -59 24 -8 6 -31 18 -50 25 -36 14 -59 24
-240 105 -58 26 -136 60 -175 75 -38 15 -145 64 -237 109 -92 45 -170 81 -173
81 -10 0 -315 151 -315 156 0 8 11 4 113 -45z m1496 -663 c39 -17 69 -34 66
-36 -6 -7 -155 51 -155 60 0 13 16 9 89 -24z m193 -75 c105 -38 108 -49 4 -13
-49 16 -91 32 -94 35 -12 11 21 4 90 -22z m243 -93 c8 -13 -5 -13 -25 0 -13 8
-13 10 2 10 9 0 20 -4 23 -10z"/>
<path d="M1186 2722 c5 -5 45 -35 89 -68 44 -32 86 -65 93 -72 15 -14 21 -12
80 37 l43 35 -91 22 c-50 13 -114 30 -142 39 -57 17 -87 20 -72 7z"/>
<path d="M2790 3795 c0 -5 11 -28 25 -51 24 -40 27 -43 50 -32 33 15 31 24 -7
44 -18 9 -41 23 -50 32 -10 8 -18 11 -18 7z"/>
</g>
</svg>
